<mxfile host="app.diagrams.net" modified="2023-05-14T17:05:48.420Z" agent="Mozilla/5.0 (Windows NT 10.0; Win64; x64) AppleWebKit/537.36 (KHTML, like Gecko) Chrome/113.0.0.0 Safari/537.36 Edg/113.0.1774.42" etag="DKW5eYreFfrtkiDrRFXb" version="21.3.0" type="device">
  <diagram name="Page-1" id="R2PDrxdQ1mhhKWqaIksi">
    <mxGraphModel dx="1499" dy="889" grid="0" gridSize="10" guides="1" tooltips="1" connect="1" arrows="1" fold="1" page="0" pageScale="1" pageWidth="827" pageHeight="1169" math="0" shadow="0">
      <root>
        <mxCell id="0" />
        <mxCell id="1" parent="0" />
        <mxCell id="FfAWD8UeeB69dAOk08Cy-68" value="" style="endArrow=none;html=1;rounded=0;strokeWidth=2;entryX=0.003;entryY=0.429;entryDx=0;entryDy=0;entryPerimeter=0;" parent="1" edge="1" target="FfAWD8UeeB69dAOk08Cy-64">
          <mxGeometry width="50" height="50" relative="1" as="geometry">
            <mxPoint x="680" y="440" as="sourcePoint" />
            <mxPoint x="750" y="440" as="targetPoint" />
          </mxGeometry>
        </mxCell>
        <mxCell id="FfAWD8UeeB69dAOk08Cy-56" value="" style="endArrow=none;html=1;rounded=0;strokeWidth=2;exitX=0;exitY=0.75;exitDx=0;exitDy=0;entryX=1;entryY=0.5;entryDx=0;entryDy=0;" parent="1" source="FfAWD8UeeB69dAOk08Cy-4" target="5RwMvg_xWtixHcQHssWJ-21" edge="1">
          <mxGeometry width="50" height="50" relative="1" as="geometry">
            <mxPoint x="765" y="289.30999999999995" as="sourcePoint" />
            <mxPoint x="760" y="295" as="targetPoint" />
          </mxGeometry>
        </mxCell>
        <mxCell id="FfAWD8UeeB69dAOk08Cy-53" value="" style="endArrow=none;html=1;rounded=0;strokeWidth=2;entryX=0.004;entryY=0.429;entryDx=0;entryDy=0;entryPerimeter=0;" parent="1" edge="1">
          <mxGeometry width="50" height="50" relative="1" as="geometry">
            <mxPoint x="700" y="290" as="sourcePoint" />
            <mxPoint x="720.16" y="290.03000000000003" as="targetPoint" />
          </mxGeometry>
        </mxCell>
        <mxCell id="FfAWD8UeeB69dAOk08Cy-54" value="" style="endArrow=none;html=1;rounded=0;strokeWidth=2;entryX=-0.012;entryY=0.285;entryDx=0;entryDy=0;entryPerimeter=0;" parent="1" edge="1" target="FfAWD8UeeB69dAOk08Cy-46">
          <mxGeometry width="50" height="50" relative="1" as="geometry">
            <mxPoint x="699" y="280" as="sourcePoint" />
            <mxPoint x="707" y="280" as="targetPoint" />
          </mxGeometry>
        </mxCell>
        <mxCell id="FfAWD8UeeB69dAOk08Cy-52" value="" style="endArrow=none;html=1;rounded=0;strokeWidth=2;entryX=0.002;entryY=0.571;entryDx=0;entryDy=0;entryPerimeter=0;" parent="1" edge="1" target="FfAWD8UeeB69dAOk08Cy-46">
          <mxGeometry width="50" height="50" relative="1" as="geometry">
            <mxPoint x="700" y="300" as="sourcePoint" />
            <mxPoint x="730" y="311" as="targetPoint" />
          </mxGeometry>
        </mxCell>
        <mxCell id="FfAWD8UeeB69dAOk08Cy-1" value="" style="rounded=0;whiteSpace=wrap;html=1;" parent="1" vertex="1">
          <mxGeometry x="260" y="200" width="80" height="120" as="geometry" />
        </mxCell>
        <mxCell id="FfAWD8UeeB69dAOk08Cy-2" value="" style="rounded=0;whiteSpace=wrap;html=1;" parent="1" vertex="1">
          <mxGeometry x="550" y="220" width="80" height="120" as="geometry" />
        </mxCell>
        <mxCell id="FfAWD8UeeB69dAOk08Cy-3" value="" style="rounded=0;whiteSpace=wrap;html=1;" parent="1" vertex="1">
          <mxGeometry x="500" y="200" width="80" height="120" as="geometry" />
        </mxCell>
        <mxCell id="5RwMvg_xWtixHcQHssWJ-29" style="edgeStyle=orthogonalEdgeStyle;rounded=0;orthogonalLoop=1;jettySize=auto;html=1;exitX=1;exitY=0.75;exitDx=0;exitDy=0;endArrow=none;endFill=0;" parent="1" edge="1">
          <mxGeometry relative="1" as="geometry">
            <mxPoint x="935" y="303" as="targetPoint" />
            <mxPoint x="860" y="303" as="sourcePoint" />
          </mxGeometry>
        </mxCell>
        <mxCell id="FfAWD8UeeB69dAOk08Cy-4" value="" style="rounded=0;whiteSpace=wrap;html=1;" parent="1" vertex="1">
          <mxGeometry x="780" y="200" width="80" height="120" as="geometry" />
        </mxCell>
        <mxCell id="FfAWD8UeeB69dAOk08Cy-6" value="" style="strokeWidth=2;html=1;shape=mxgraph.flowchart.annotation_1;align=left;pointerEvents=1;" parent="1" vertex="1">
          <mxGeometry x="180" y="80" width="20" height="210" as="geometry" />
        </mxCell>
        <mxCell id="FfAWD8UeeB69dAOk08Cy-8" value="" style="endArrow=none;html=1;rounded=0;strokeWidth=2;" parent="1" edge="1">
          <mxGeometry width="50" height="50" relative="1" as="geometry">
            <mxPoint x="170" y="120" as="sourcePoint" />
            <mxPoint x="890" y="120" as="targetPoint" />
          </mxGeometry>
        </mxCell>
        <mxCell id="FfAWD8UeeB69dAOk08Cy-10" value="" style="endArrow=none;html=1;rounded=0;strokeWidth=2;" parent="1" edge="1">
          <mxGeometry width="50" height="50" relative="1" as="geometry">
            <mxPoint x="170" y="80" as="sourcePoint" />
            <mxPoint x="910" y="80" as="targetPoint" />
          </mxGeometry>
        </mxCell>
        <mxCell id="FfAWD8UeeB69dAOk08Cy-12" value="" style="endArrow=none;html=1;rounded=0;entryX=0.5;entryY=0;entryDx=0;entryDy=0;" parent="1" target="FfAWD8UeeB69dAOk08Cy-3" edge="1">
          <mxGeometry width="50" height="50" relative="1" as="geometry">
            <mxPoint x="540" y="120" as="sourcePoint" />
            <mxPoint x="440" y="190" as="targetPoint" />
          </mxGeometry>
        </mxCell>
        <mxCell id="FfAWD8UeeB69dAOk08Cy-13" value="" style="endArrow=none;html=1;rounded=0;entryX=0.5;entryY=0;entryDx=0;entryDy=0;" parent="1" edge="1">
          <mxGeometry width="50" height="50" relative="1" as="geometry">
            <mxPoint x="600" y="120" as="sourcePoint" />
            <mxPoint x="600" y="220" as="targetPoint" />
          </mxGeometry>
        </mxCell>
        <mxCell id="FfAWD8UeeB69dAOk08Cy-16" value="" style="strokeWidth=2;html=1;shape=mxgraph.flowchart.annotation_1;align=left;pointerEvents=1;" parent="1" vertex="1">
          <mxGeometry x="390" y="80" height="220" as="geometry" />
        </mxCell>
        <mxCell id="FfAWD8UeeB69dAOk08Cy-19" value="" style="endArrow=none;html=1;rounded=0;entryX=0.5;entryY=0;entryDx=0;entryDy=0;" parent="1" target="FfAWD8UeeB69dAOk08Cy-4" edge="1">
          <mxGeometry width="50" height="50" relative="1" as="geometry">
            <mxPoint x="820" y="120" as="sourcePoint" />
            <mxPoint x="809.29" y="200" as="targetPoint" />
          </mxGeometry>
        </mxCell>
        <mxCell id="FfAWD8UeeB69dAOk08Cy-20" value="" style="endArrow=none;html=1;rounded=0;entryX=0.5;entryY=0;entryDx=0;entryDy=0;strokeWidth=2;" parent="1" target="5RwMvg_xWtixHcQHssWJ-24" edge="1">
          <mxGeometry width="50" height="50" relative="1" as="geometry">
            <mxPoint x="890" y="120" as="sourcePoint" />
            <mxPoint x="890" y="360.0000000000001" as="targetPoint" />
          </mxGeometry>
        </mxCell>
        <mxCell id="FfAWD8UeeB69dAOk08Cy-21" value="" style="endArrow=none;html=1;rounded=0;" parent="1" edge="1">
          <mxGeometry width="50" height="50" relative="1" as="geometry">
            <mxPoint x="290.29" y="120" as="sourcePoint" />
            <mxPoint x="290" y="200" as="targetPoint" />
          </mxGeometry>
        </mxCell>
        <mxCell id="FfAWD8UeeB69dAOk08Cy-23" value="" style="endArrow=none;html=1;rounded=0;strokeWidth=2;exitX=0.5;exitY=0;exitDx=0;exitDy=0;exitPerimeter=0;entryX=0;entryY=0.5;entryDx=0;entryDy=0;" parent="1" source="FfAWD8UeeB69dAOk08Cy-27" target="OPhM1rb45kpCFRoYdec_-35" edge="1">
          <mxGeometry width="50" height="50" relative="1" as="geometry">
            <mxPoint x="210" y="240" as="sourcePoint" />
            <mxPoint x="250" y="240" as="targetPoint" />
          </mxGeometry>
        </mxCell>
        <mxCell id="FfAWD8UeeB69dAOk08Cy-26" value="" style="endArrow=none;html=1;rounded=0;strokeWidth=2;entryX=-0.006;entryY=0.665;entryDx=0;entryDy=0;entryPerimeter=0;" parent="1" source="5RwMvg_xWtixHcQHssWJ-45" target="FfAWD8UeeB69dAOk08Cy-1" edge="1">
          <mxGeometry width="50" height="50" relative="1" as="geometry">
            <mxPoint x="230" y="279.29" as="sourcePoint" />
            <mxPoint x="250" y="279" as="targetPoint" />
            <Array as="points" />
          </mxGeometry>
        </mxCell>
        <mxCell id="FfAWD8UeeB69dAOk08Cy-27" value="" style="strokeWidth=2;html=1;shape=mxgraph.flowchart.annotation_1;align=left;pointerEvents=1;" parent="1" vertex="1">
          <mxGeometry x="180" y="240" height="50" as="geometry" />
        </mxCell>
        <mxCell id="FfAWD8UeeB69dAOk08Cy-28" value="" style="endArrow=none;html=1;rounded=0;strokeWidth=2;exitX=0.121;exitY=0.737;exitDx=0;exitDy=0;exitPerimeter=0;" parent="1" source="FfAWD8UeeB69dAOk08Cy-24" edge="1">
          <mxGeometry width="50" height="50" relative="1" as="geometry">
            <mxPoint x="210" y="430" as="sourcePoint" />
            <mxPoint x="220" y="277" as="targetPoint" />
            <Array as="points" />
          </mxGeometry>
        </mxCell>
        <mxCell id="FfAWD8UeeB69dAOk08Cy-30" value="" style="endArrow=none;html=1;rounded=0;strokeWidth=2;" parent="1" source="FfAWD8UeeB69dAOk08Cy-34" target="FfAWD8UeeB69dAOk08Cy-24" edge="1">
          <mxGeometry width="50" height="50" relative="1" as="geometry">
            <mxPoint x="230" y="279.29" as="sourcePoint" />
            <mxPoint x="250" y="279" as="targetPoint" />
            <Array as="points" />
          </mxGeometry>
        </mxCell>
        <mxCell id="FfAWD8UeeB69dAOk08Cy-31" value="" style="endArrow=none;html=1;rounded=0;strokeWidth=2;exitX=0;exitY=0.703;exitDx=0;exitDy=0;exitPerimeter=0;entryX=0;entryY=0.5;entryDx=0;entryDy=0;" parent="1" source="FfAWD8UeeB69dAOk08Cy-27" target="FfAWD8UeeB69dAOk08Cy-33" edge="1">
          <mxGeometry width="50" height="50" relative="1" as="geometry">
            <mxPoint x="192" y="277" as="sourcePoint" />
            <mxPoint x="220" y="277" as="targetPoint" />
            <Array as="points" />
          </mxGeometry>
        </mxCell>
        <mxCell id="FfAWD8UeeB69dAOk08Cy-24" value="" style="shape=or;whiteSpace=wrap;html=1;" parent="1" vertex="1">
          <mxGeometry x="200" y="260" width="30" height="40" as="geometry" />
        </mxCell>
        <mxCell id="FfAWD8UeeB69dAOk08Cy-32" value="" style="ellipse;whiteSpace=wrap;html=1;aspect=fixed;" parent="1" vertex="1">
          <mxGeometry x="190" y="285" width="10" height="10" as="geometry" />
        </mxCell>
        <mxCell id="FfAWD8UeeB69dAOk08Cy-33" value="" style="ellipse;whiteSpace=wrap;html=1;aspect=fixed;" parent="1" vertex="1">
          <mxGeometry x="190" y="270" width="10" height="10" as="geometry" />
        </mxCell>
        <mxCell id="FfAWD8UeeB69dAOk08Cy-35" value="" style="endArrow=none;html=1;rounded=0;strokeWidth=2;" parent="1" target="FfAWD8UeeB69dAOk08Cy-34" edge="1">
          <mxGeometry width="50" height="50" relative="1" as="geometry">
            <mxPoint x="230" y="279.29" as="sourcePoint" />
            <mxPoint x="230" y="279" as="targetPoint" />
            <Array as="points" />
          </mxGeometry>
        </mxCell>
        <mxCell id="FfAWD8UeeB69dAOk08Cy-37" value="" style="shape=or;whiteSpace=wrap;html=1;" parent="1" vertex="1">
          <mxGeometry x="410" y="270" width="30" height="40" as="geometry" />
        </mxCell>
        <mxCell id="FfAWD8UeeB69dAOk08Cy-38" value="" style="endArrow=none;html=1;rounded=0;strokeWidth=2;" parent="1" edge="1">
          <mxGeometry width="50" height="50" relative="1" as="geometry">
            <mxPoint x="390" y="280" as="sourcePoint" />
            <mxPoint x="410" y="280" as="targetPoint" />
            <Array as="points">
              <mxPoint x="400" y="280" />
            </Array>
          </mxGeometry>
        </mxCell>
        <mxCell id="FD9hYb9DDB--mBPRf5bZ-8" style="edgeStyle=orthogonalEdgeStyle;rounded=0;orthogonalLoop=1;jettySize=auto;html=1;endArrow=none;endFill=0;strokeWidth=2;" edge="1" parent="1" source="FfAWD8UeeB69dAOk08Cy-39">
          <mxGeometry relative="1" as="geometry">
            <mxPoint x="390" y="300" as="targetPoint" />
            <Array as="points">
              <mxPoint x="390" y="300" />
              <mxPoint x="390" y="300" />
            </Array>
          </mxGeometry>
        </mxCell>
        <mxCell id="FfAWD8UeeB69dAOk08Cy-39" value="" style="ellipse;whiteSpace=wrap;html=1;aspect=fixed;" parent="1" vertex="1">
          <mxGeometry x="400" y="295" width="10" height="10" as="geometry" />
        </mxCell>
        <mxCell id="FfAWD8UeeB69dAOk08Cy-45" value="" style="endArrow=none;html=1;rounded=0;strokeWidth=2;exitX=0.5;exitY=0;exitDx=0;exitDy=0;exitPerimeter=0;" parent="1" edge="1">
          <mxGeometry width="50" height="50" relative="1" as="geometry">
            <mxPoint x="390" y="239.31" as="sourcePoint" />
            <mxPoint x="500" y="239" as="targetPoint" />
          </mxGeometry>
        </mxCell>
        <mxCell id="FfAWD8UeeB69dAOk08Cy-50" value="" style="endArrow=none;html=1;rounded=0;strokeWidth=2;entryX=0;entryY=1;entryDx=0;entryDy=0;entryPerimeter=0;" parent="1" edge="1">
          <mxGeometry width="50" height="50" relative="1" as="geometry">
            <mxPoint x="719" y="300" as="sourcePoint" />
            <mxPoint x="699" y="210" as="targetPoint" />
            <Array as="points">
              <mxPoint x="699" y="300" />
              <mxPoint x="699" y="80" />
            </Array>
          </mxGeometry>
        </mxCell>
        <mxCell id="FfAWD8UeeB69dAOk08Cy-61" value="" style="endArrow=none;html=1;rounded=0;strokeWidth=2;entryX=-0.007;entryY=0.581;entryDx=0;entryDy=0;entryPerimeter=0;" parent="1" edge="1" target="FfAWD8UeeB69dAOk08Cy-64">
          <mxGeometry width="50" height="50" relative="1" as="geometry">
            <mxPoint x="680" y="450" as="sourcePoint" />
            <mxPoint x="780" y="450.9" as="targetPoint" />
          </mxGeometry>
        </mxCell>
        <mxCell id="FfAWD8UeeB69dAOk08Cy-62" value="" style="endArrow=none;html=1;rounded=0;strokeWidth=2;entryX=0.007;entryY=0.286;entryDx=0;entryDy=0;entryPerimeter=0;" parent="1" edge="1" target="FfAWD8UeeB69dAOk08Cy-64">
          <mxGeometry width="50" height="50" relative="1" as="geometry">
            <mxPoint x="680" y="430" as="sourcePoint" />
            <mxPoint x="780" y="434.81" as="targetPoint" />
            <Array as="points">
              <mxPoint x="730" y="430" />
            </Array>
          </mxGeometry>
        </mxCell>
        <mxCell id="FfAWD8UeeB69dAOk08Cy-63" value="" style="endArrow=none;html=1;rounded=0;strokeWidth=2;" parent="1" edge="1">
          <mxGeometry width="50" height="50" relative="1" as="geometry">
            <mxPoint x="680" y="459" as="sourcePoint" />
            <mxPoint x="787.52" y="459.15" as="targetPoint" />
          </mxGeometry>
        </mxCell>
        <mxCell id="FfAWD8UeeB69dAOk08Cy-64" value="" style="shape=or;whiteSpace=wrap;html=1;" parent="1" vertex="1">
          <mxGeometry x="780" y="410" width="30" height="70" as="geometry" />
        </mxCell>
        <mxCell id="OPhM1rb45kpCFRoYdec_-1" value="" style="endArrow=none;html=1;rounded=0;" parent="1" edge="1">
          <mxGeometry width="50" height="50" relative="1" as="geometry">
            <mxPoint x="890" y="600" as="sourcePoint" />
            <mxPoint x="170" y="600" as="targetPoint" />
          </mxGeometry>
        </mxCell>
        <mxCell id="OPhM1rb45kpCFRoYdec_-2" value="" style="endArrow=none;html=1;rounded=0;" parent="1" edge="1">
          <mxGeometry width="50" height="50" relative="1" as="geometry">
            <mxPoint x="890" y="619.57" as="sourcePoint" />
            <mxPoint x="170" y="619.57" as="targetPoint" />
          </mxGeometry>
        </mxCell>
        <mxCell id="OPhM1rb45kpCFRoYdec_-3" value="" style="endArrow=none;html=1;rounded=0;" parent="1" edge="1">
          <mxGeometry width="50" height="50" relative="1" as="geometry">
            <mxPoint x="890" y="640" as="sourcePoint" />
            <mxPoint x="170" y="640" as="targetPoint" />
          </mxGeometry>
        </mxCell>
        <mxCell id="OPhM1rb45kpCFRoYdec_-4" value="nRD" style="text;html=1;strokeColor=none;fillColor=none;align=center;verticalAlign=middle;whiteSpace=wrap;rounded=0;" parent="1" vertex="1">
          <mxGeometry x="130" y="590" width="40" height="20" as="geometry" />
        </mxCell>
        <mxCell id="OPhM1rb45kpCFRoYdec_-5" value="nWRL" style="text;html=1;strokeColor=none;fillColor=none;align=center;verticalAlign=middle;whiteSpace=wrap;rounded=0;" parent="1" vertex="1">
          <mxGeometry x="130" y="610" width="40" height="20" as="geometry" />
        </mxCell>
        <mxCell id="OPhM1rb45kpCFRoYdec_-6" value="nWRH" style="text;html=1;strokeColor=none;fillColor=none;align=center;verticalAlign=middle;whiteSpace=wrap;rounded=0;" parent="1" vertex="1">
          <mxGeometry x="130" y="630" width="40" height="20" as="geometry" />
        </mxCell>
        <mxCell id="OPhM1rb45kpCFRoYdec_-8" value="&lt;p class=&quot;MsoNormal&quot;&gt;D&lt;sub&gt;0-15&lt;/sub&gt;&lt;/p&gt;" style="text;html=1;strokeColor=none;fillColor=none;align=center;verticalAlign=middle;whiteSpace=wrap;rounded=0;" parent="1" vertex="1">
          <mxGeometry x="130" y="110" width="40" height="20" as="geometry" />
        </mxCell>
        <mxCell id="OPhM1rb45kpCFRoYdec_-9" value="&lt;p class=&quot;MsoNormal&quot;&gt;&lt;sub&gt;&lt;span style=&quot;font-size: 12px;&quot;&gt;A&lt;/span&gt;0-15&lt;/sub&gt;&lt;/p&gt;" style="text;html=1;strokeColor=none;fillColor=none;align=center;verticalAlign=middle;whiteSpace=wrap;rounded=0;" parent="1" vertex="1">
          <mxGeometry x="130" y="70" width="40" height="20" as="geometry" />
        </mxCell>
        <mxCell id="OPhM1rb45kpCFRoYdec_-10" value="" style="endArrow=none;html=1;rounded=0;" parent="1" edge="1">
          <mxGeometry width="50" height="50" relative="1" as="geometry">
            <mxPoint x="210" y="600" as="sourcePoint" />
            <mxPoint x="210" y="310" as="targetPoint" />
          </mxGeometry>
        </mxCell>
        <mxCell id="OPhM1rb45kpCFRoYdec_-11" value="" style="endArrow=none;html=1;rounded=0;" parent="1" source="OPhM1rb45kpCFRoYdec_-12" edge="1">
          <mxGeometry width="50" height="50" relative="1" as="geometry">
            <mxPoint x="210" y="310" as="sourcePoint" />
            <mxPoint x="250" y="310" as="targetPoint" />
          </mxGeometry>
        </mxCell>
        <mxCell id="OPhM1rb45kpCFRoYdec_-13" value="" style="endArrow=none;html=1;rounded=0;" parent="1" target="OPhM1rb45kpCFRoYdec_-22" edge="1" source="OPhM1rb45kpCFRoYdec_-12">
          <mxGeometry width="50" height="50" relative="1" as="geometry">
            <mxPoint x="210" y="310" as="sourcePoint" />
            <mxPoint x="255" y="315" as="targetPoint" />
          </mxGeometry>
        </mxCell>
        <mxCell id="OPhM1rb45kpCFRoYdec_-14" value="" style="endArrow=none;html=1;rounded=0;" parent="1" source="OPhM1rb45kpCFRoYdec_-25" edge="1">
          <mxGeometry width="50" height="50" relative="1" as="geometry">
            <mxPoint x="540" y="620" as="sourcePoint" />
            <mxPoint x="539.5699999999999" y="320" as="targetPoint" />
          </mxGeometry>
        </mxCell>
        <mxCell id="OPhM1rb45kpCFRoYdec_-17" value="&lt;sub&gt;0-7&lt;/sub&gt;" style="text;html=1;strokeColor=none;fillColor=none;align=center;verticalAlign=middle;whiteSpace=wrap;rounded=0;" parent="1" vertex="1">
          <mxGeometry x="540" y="185" width="30" height="10" as="geometry" />
        </mxCell>
        <mxCell id="OPhM1rb45kpCFRoYdec_-18" value="&lt;sub&gt;8-15&lt;/sub&gt;" style="text;html=1;strokeColor=none;fillColor=none;align=center;verticalAlign=middle;whiteSpace=wrap;rounded=0;" parent="1" vertex="1">
          <mxGeometry x="600" y="200" width="30" height="20" as="geometry" />
        </mxCell>
        <mxCell id="OPhM1rb45kpCFRoYdec_-21" value="CS" style="text;html=1;strokeColor=none;fillColor=none;align=center;verticalAlign=middle;whiteSpace=wrap;rounded=0;" parent="1" vertex="1">
          <mxGeometry x="240" y="265" width="60" height="30" as="geometry" />
        </mxCell>
        <mxCell id="OPhM1rb45kpCFRoYdec_-22" value="OE" style="text;html=1;strokeColor=none;fillColor=none;align=center;verticalAlign=middle;whiteSpace=wrap;rounded=0;" parent="1" vertex="1">
          <mxGeometry x="260" y="295" width="60" height="30" as="geometry" />
        </mxCell>
        <mxCell id="OPhM1rb45kpCFRoYdec_-23" value="OE" style="text;html=1;strokeColor=none;fillColor=none;align=center;verticalAlign=middle;whiteSpace=wrap;rounded=0;" parent="1" vertex="1">
          <mxGeometry x="500" y="300" width="30" height="20" as="geometry" />
        </mxCell>
        <mxCell id="OPhM1rb45kpCFRoYdec_-24" value="CS" style="text;html=1;strokeColor=none;fillColor=none;align=center;verticalAlign=middle;whiteSpace=wrap;rounded=0;" parent="1" vertex="1">
          <mxGeometry x="500" y="280" width="30" height="20" as="geometry" />
        </mxCell>
        <mxCell id="OPhM1rb45kpCFRoYdec_-26" value="" style="endArrow=none;html=1;rounded=0;" parent="1" target="OPhM1rb45kpCFRoYdec_-25" edge="1">
          <mxGeometry width="50" height="50" relative="1" as="geometry">
            <mxPoint x="540" y="620" as="sourcePoint" />
            <mxPoint x="539.5699999999999" y="320" as="targetPoint" />
          </mxGeometry>
        </mxCell>
        <mxCell id="OPhM1rb45kpCFRoYdec_-25" value="" style="ellipse;whiteSpace=wrap;html=1;aspect=fixed;" parent="1" vertex="1">
          <mxGeometry x="535" y="320" width="10" height="10" as="geometry" />
        </mxCell>
        <mxCell id="OPhM1rb45kpCFRoYdec_-28" value="" style="endArrow=none;html=1;rounded=0;" parent="1" target="OPhM1rb45kpCFRoYdec_-27" edge="1">
          <mxGeometry width="50" height="50" relative="1" as="geometry">
            <mxPoint x="600" y="640" as="sourcePoint" />
            <mxPoint x="594" y="340" as="targetPoint" />
          </mxGeometry>
        </mxCell>
        <mxCell id="OPhM1rb45kpCFRoYdec_-27" value="" style="ellipse;whiteSpace=wrap;html=1;aspect=fixed;" parent="1" vertex="1">
          <mxGeometry x="595" y="340" width="10" height="10" as="geometry" />
        </mxCell>
        <mxCell id="OPhM1rb45kpCFRoYdec_-29" value="WE" style="text;html=1;strokeColor=none;fillColor=none;align=center;verticalAlign=middle;whiteSpace=wrap;rounded=0;" parent="1" vertex="1">
          <mxGeometry x="525" y="300" width="30" height="20" as="geometry" />
        </mxCell>
        <mxCell id="OPhM1rb45kpCFRoYdec_-30" value="WE" style="text;html=1;strokeColor=none;fillColor=none;align=center;verticalAlign=middle;whiteSpace=wrap;rounded=0;" parent="1" vertex="1">
          <mxGeometry x="585" y="320" width="30" height="20" as="geometry" />
        </mxCell>
        <mxCell id="OPhM1rb45kpCFRoYdec_-31" value="&lt;p class=&quot;MsoNormal&quot;&gt;D&lt;sub&gt;0-15&lt;/sub&gt;&lt;/p&gt;" style="text;html=1;strokeColor=none;fillColor=none;align=center;verticalAlign=middle;whiteSpace=wrap;rounded=0;" parent="1" vertex="1">
          <mxGeometry x="270" y="200" width="40" height="20" as="geometry" />
        </mxCell>
        <mxCell id="OPhM1rb45kpCFRoYdec_-32" value="&lt;p class=&quot;MsoNormal&quot;&gt;D&lt;sub&gt;0-7&lt;/sub&gt;&lt;/p&gt;" style="text;html=1;strokeColor=none;fillColor=none;align=center;verticalAlign=middle;whiteSpace=wrap;rounded=0;" parent="1" vertex="1">
          <mxGeometry x="520" y="200" width="40" height="20" as="geometry" />
        </mxCell>
        <mxCell id="OPhM1rb45kpCFRoYdec_-33" value="&lt;p class=&quot;MsoNormal&quot;&gt;D&lt;sub&gt;0-7&lt;/sub&gt;&lt;/p&gt;" style="text;html=1;strokeColor=none;fillColor=none;align=center;verticalAlign=middle;whiteSpace=wrap;rounded=0;" parent="1" vertex="1">
          <mxGeometry x="590" y="220" width="30" height="20" as="geometry" />
        </mxCell>
        <mxCell id="OPhM1rb45kpCFRoYdec_-35" value="&lt;p class=&quot;MsoNormal&quot;&gt;A&lt;sub&gt;0-12&lt;/sub&gt;&lt;/p&gt;" style="text;html=1;strokeColor=none;fillColor=none;align=center;verticalAlign=middle;whiteSpace=wrap;rounded=0;" parent="1" vertex="1">
          <mxGeometry x="260" y="230" width="40" height="20" as="geometry" />
        </mxCell>
        <mxCell id="OPhM1rb45kpCFRoYdec_-36" value="&lt;p class=&quot;MsoNormal&quot;&gt;A&lt;sub&gt;0-12&lt;/sub&gt;&lt;/p&gt;" style="text;html=1;strokeColor=none;fillColor=none;align=center;verticalAlign=middle;whiteSpace=wrap;rounded=0;" parent="1" vertex="1">
          <mxGeometry x="500" y="230" width="40" height="20" as="geometry" />
        </mxCell>
        <mxCell id="OPhM1rb45kpCFRoYdec_-37" value="&lt;b&gt;&lt;font style=&quot;font-size: 15px;&quot;&gt;#1&lt;/font&gt;&lt;/b&gt;" style="text;html=1;strokeColor=none;fillColor=none;align=center;verticalAlign=middle;whiteSpace=wrap;rounded=0;" parent="1" vertex="1">
          <mxGeometry x="280" y="250" width="60" height="30" as="geometry" />
        </mxCell>
        <mxCell id="OPhM1rb45kpCFRoYdec_-38" value="&lt;b&gt;&lt;font style=&quot;font-size: 15px;&quot;&gt;#2&lt;/font&gt;&lt;/b&gt;" style="text;html=1;strokeColor=none;fillColor=none;align=center;verticalAlign=middle;whiteSpace=wrap;rounded=0;" parent="1" vertex="1">
          <mxGeometry x="530" y="250" width="60" height="30" as="geometry" />
        </mxCell>
        <mxCell id="OPhM1rb45kpCFRoYdec_-39" value="&lt;b&gt;&lt;font style=&quot;font-size: 15px;&quot;&gt;#3&lt;/font&gt;&lt;/b&gt;" style="text;html=1;strokeColor=none;fillColor=none;align=center;verticalAlign=middle;whiteSpace=wrap;rounded=0;" parent="1" vertex="1">
          <mxGeometry x="580" y="260" width="60" height="30" as="geometry" />
        </mxCell>
        <mxCell id="OPhM1rb45kpCFRoYdec_-40" value="&lt;b&gt;&lt;font style=&quot;font-size: 15px;&quot;&gt;#4&lt;/font&gt;&lt;/b&gt;" style="text;html=1;strokeColor=none;fillColor=none;align=center;verticalAlign=middle;whiteSpace=wrap;rounded=0;" parent="1" vertex="1">
          <mxGeometry x="800" y="250" width="60" height="30" as="geometry" />
        </mxCell>
        <mxCell id="5RwMvg_xWtixHcQHssWJ-1" value="EN" style="text;html=1;strokeColor=none;fillColor=none;align=center;verticalAlign=middle;whiteSpace=wrap;rounded=0;" parent="1" vertex="1">
          <mxGeometry x="760" y="270" width="60" height="40" as="geometry" />
        </mxCell>
        <mxCell id="5RwMvg_xWtixHcQHssWJ-3" value="" style="endArrow=none;html=1;rounded=0;strokeWidth=2;" parent="1" edge="1" source="5RwMvg_xWtixHcQHssWJ-9">
          <mxGeometry width="50" height="50" relative="1" as="geometry">
            <mxPoint x="700" y="275" as="sourcePoint" />
            <mxPoint x="730" y="275.34" as="targetPoint" />
          </mxGeometry>
        </mxCell>
        <mxCell id="FfAWD8UeeB69dAOk08Cy-46" value="" style="shape=or;whiteSpace=wrap;html=1;" parent="1" vertex="1">
          <mxGeometry x="720" y="260" width="40" height="70" as="geometry" />
        </mxCell>
        <mxCell id="5RwMvg_xWtixHcQHssWJ-5" value="" style="endArrow=none;html=1;rounded=0;strokeWidth=2;" parent="1" target="FfAWD8UeeB69dAOk08Cy-55" edge="1">
          <mxGeometry width="50" height="50" relative="1" as="geometry">
            <mxPoint x="680" y="420" as="sourcePoint" />
            <mxPoint x="730" y="265" as="targetPoint" />
            <Array as="points" />
          </mxGeometry>
        </mxCell>
        <mxCell id="FfAWD8UeeB69dAOk08Cy-55" value="" style="ellipse;whiteSpace=wrap;html=1;aspect=fixed;" parent="1" vertex="1">
          <mxGeometry x="770" y="415" width="10" height="10" as="geometry" />
        </mxCell>
        <mxCell id="5RwMvg_xWtixHcQHssWJ-6" value="A&lt;sub style=&quot;font-size: 8px;&quot;&gt;15&lt;/sub&gt;" style="text;html=1;align=center;verticalAlign=middle;resizable=0;points=[];autosize=1;strokeColor=none;fillColor=none;fontSize=8;" parent="1" vertex="1">
          <mxGeometry x="708" y="286" width="40" height="30" as="geometry" />
        </mxCell>
        <mxCell id="5RwMvg_xWtixHcQHssWJ-7" value="A&lt;sub style=&quot;font-size: 8px;&quot;&gt;14&lt;/sub&gt;" style="text;html=1;align=center;verticalAlign=middle;resizable=0;points=[];autosize=1;strokeColor=none;fillColor=none;fontSize=8;" parent="1" vertex="1">
          <mxGeometry x="708" y="275" width="40" height="30" as="geometry" />
        </mxCell>
        <mxCell id="5RwMvg_xWtixHcQHssWJ-8" value="A&lt;sub style=&quot;font-size: 8px;&quot;&gt;13&lt;br style=&quot;font-size: 8px;&quot;&gt;&lt;/sub&gt;" style="text;html=1;align=center;verticalAlign=middle;resizable=0;points=[];autosize=1;strokeColor=none;fillColor=none;fontSize=8;" parent="1" vertex="1">
          <mxGeometry x="708" y="265" width="40" height="30" as="geometry" />
        </mxCell>
        <mxCell id="5RwMvg_xWtixHcQHssWJ-10" value="A&lt;sub style=&quot;font-size: 8px;&quot;&gt;11&lt;/sub&gt;" style="text;html=1;align=center;verticalAlign=middle;resizable=0;points=[];autosize=1;strokeColor=none;fillColor=none;fontSize=8;" parent="1" vertex="1">
          <mxGeometry x="770" y="405" width="40" height="30" as="geometry" />
        </mxCell>
        <mxCell id="5RwMvg_xWtixHcQHssWJ-11" value="" style="endArrow=none;html=1;rounded=0;strokeWidth=2;" parent="1" edge="1">
          <mxGeometry width="50" height="50" relative="1" as="geometry">
            <mxPoint x="680" y="460" as="sourcePoint" />
            <mxPoint x="680" y="80" as="targetPoint" />
          </mxGeometry>
        </mxCell>
        <mxCell id="5RwMvg_xWtixHcQHssWJ-12" value="A&lt;sub style=&quot;font-size: 8px;&quot;&gt;12&lt;/sub&gt;" style="text;html=1;align=center;verticalAlign=middle;resizable=0;points=[];autosize=1;strokeColor=none;fillColor=none;fontSize=8;" parent="1" vertex="1">
          <mxGeometry x="770" y="415" width="40" height="30" as="geometry" />
        </mxCell>
        <mxCell id="5RwMvg_xWtixHcQHssWJ-13" value="A&lt;sub style=&quot;font-size: 8px;&quot;&gt;13&lt;/sub&gt;" style="text;html=1;align=center;verticalAlign=middle;resizable=0;points=[];autosize=1;strokeColor=none;fillColor=none;fontSize=8;" parent="1" vertex="1">
          <mxGeometry x="770" y="425" width="40" height="30" as="geometry" />
        </mxCell>
        <mxCell id="5RwMvg_xWtixHcQHssWJ-14" value="A&lt;sub style=&quot;font-size: 8px;&quot;&gt;14&lt;/sub&gt;" style="text;html=1;align=center;verticalAlign=middle;resizable=0;points=[];autosize=1;strokeColor=none;fillColor=none;fontSize=8;" parent="1" vertex="1">
          <mxGeometry x="770" y="435" width="40" height="30" as="geometry" />
        </mxCell>
        <mxCell id="5RwMvg_xWtixHcQHssWJ-15" value="A&lt;sub style=&quot;font-size: 8px;&quot;&gt;15&lt;/sub&gt;" style="text;html=1;align=center;verticalAlign=middle;resizable=0;points=[];autosize=1;strokeColor=none;fillColor=none;fontSize=8;" parent="1" vertex="1">
          <mxGeometry x="770" y="445" width="40" height="30" as="geometry" />
        </mxCell>
        <mxCell id="5RwMvg_xWtixHcQHssWJ-18" value="" style="endArrow=none;html=1;rounded=0;strokeWidth=2;" parent="1" edge="1">
          <mxGeometry width="50" height="50" relative="1" as="geometry">
            <mxPoint x="810" y="449.89" as="sourcePoint" />
            <mxPoint x="810" y="450" as="targetPoint" />
          </mxGeometry>
        </mxCell>
        <mxCell id="5RwMvg_xWtixHcQHssWJ-20" value="" style="endArrow=none;html=1;rounded=0;strokeWidth=2;entryX=0.5;entryY=1;entryDx=0;entryDy=0;" parent="1" target="5RwMvg_xWtixHcQHssWJ-25" edge="1">
          <mxGeometry width="50" height="50" relative="1" as="geometry">
            <mxPoint x="869" y="450" as="sourcePoint" />
            <mxPoint x="847.5" y="449.89" as="targetPoint" />
          </mxGeometry>
        </mxCell>
        <mxCell id="5RwMvg_xWtixHcQHssWJ-21" value="" style="ellipse;whiteSpace=wrap;html=1;aspect=fixed;" parent="1" vertex="1">
          <mxGeometry x="760" y="285" width="10" height="10" as="geometry" />
        </mxCell>
        <mxCell id="5RwMvg_xWtixHcQHssWJ-23" value="D&lt;sub&gt;0-7&lt;/sub&gt;" style="text;html=1;align=center;verticalAlign=middle;resizable=0;points=[];autosize=1;strokeColor=none;fillColor=none;" parent="1" vertex="1">
          <mxGeometry x="800" y="200" width="50" height="30" as="geometry" />
        </mxCell>
        <mxCell id="5RwMvg_xWtixHcQHssWJ-27" style="edgeStyle=orthogonalEdgeStyle;rounded=0;orthogonalLoop=1;jettySize=auto;html=1;exitX=0.95;exitY=0.5;exitDx=0;exitDy=0;endArrow=none;endFill=0;strokeWidth=2;exitPerimeter=0;" parent="1" source="5RwMvg_xWtixHcQHssWJ-25" edge="1">
          <mxGeometry relative="1" as="geometry">
            <mxPoint x="930" y="520" as="targetPoint" />
            <Array as="points">
              <mxPoint x="890" y="520" />
            </Array>
          </mxGeometry>
        </mxCell>
        <mxCell id="5RwMvg_xWtixHcQHssWJ-25" value="" style="triangle;whiteSpace=wrap;html=1;direction=north;" parent="1" vertex="1">
          <mxGeometry x="850" y="415" width="80" height="60" as="geometry" />
        </mxCell>
        <mxCell id="5RwMvg_xWtixHcQHssWJ-24" value="Porto Entrada" style="text;html=1;strokeColor=none;fillColor=none;align=center;verticalAlign=middle;whiteSpace=wrap;rounded=0;" parent="1" vertex="1">
          <mxGeometry x="860" y="445" width="60" height="30" as="geometry" />
        </mxCell>
        <mxCell id="5RwMvg_xWtixHcQHssWJ-26" value="" style="endArrow=none;html=1;rounded=0;strokeWidth=2;entryX=0.5;entryY=0;entryDx=0;entryDy=0;exitX=1;exitY=0.5;exitDx=0;exitDy=0;exitPerimeter=0;" parent="1" target="5RwMvg_xWtixHcQHssWJ-25" edge="1" source="FfAWD8UeeB69dAOk08Cy-64">
          <mxGeometry width="50" height="50" relative="1" as="geometry">
            <mxPoint x="810" y="450" as="sourcePoint" />
            <mxPoint x="859" y="450" as="targetPoint" />
          </mxGeometry>
        </mxCell>
        <mxCell id="5RwMvg_xWtixHcQHssWJ-28" value="EN" style="text;html=1;align=center;verticalAlign=middle;resizable=0;points=[];autosize=1;strokeColor=none;fillColor=none;" parent="1" vertex="1">
          <mxGeometry x="840" y="420" width="40" height="30" as="geometry" />
        </mxCell>
        <mxCell id="5RwMvg_xWtixHcQHssWJ-30" value="Q&lt;sub&gt;0-7&lt;/sub&gt;" style="text;html=1;align=center;verticalAlign=middle;resizable=0;points=[];autosize=1;strokeColor=none;fillColor=none;" parent="1" vertex="1">
          <mxGeometry x="820" y="290" width="50" height="30" as="geometry" />
        </mxCell>
        <mxCell id="5RwMvg_xWtixHcQHssWJ-32" value="D&lt;sub&gt;0-7&lt;/sub&gt;" style="text;html=1;align=center;verticalAlign=middle;resizable=0;points=[];autosize=1;strokeColor=none;fillColor=none;" parent="1" vertex="1">
          <mxGeometry x="880" y="390" width="50" height="30" as="geometry" />
        </mxCell>
        <mxCell id="5RwMvg_xWtixHcQHssWJ-33" value="" style="endArrow=none;html=1;rounded=0;" parent="1" edge="1">
          <mxGeometry width="50" height="50" relative="1" as="geometry">
            <mxPoint x="730" y="600" as="sourcePoint" />
            <mxPoint x="780" y="470" as="targetPoint" />
            <Array as="points">
              <mxPoint x="730" y="470" />
            </Array>
          </mxGeometry>
        </mxCell>
        <mxCell id="5RwMvg_xWtixHcQHssWJ-34" value="" style="endArrow=none;html=1;rounded=0;entryX=0;entryY=0.5;entryDx=0;entryDy=0;" parent="1" target="5RwMvg_xWtixHcQHssWJ-38" edge="1">
          <mxGeometry width="50" height="50" relative="1" as="geometry">
            <mxPoint x="650" y="620" as="sourcePoint" />
            <mxPoint x="510" y="460" as="targetPoint" />
            <Array as="points">
              <mxPoint x="650" y="320" />
            </Array>
          </mxGeometry>
        </mxCell>
        <mxCell id="5RwMvg_xWtixHcQHssWJ-35" value="nWRL" style="text;html=1;align=center;verticalAlign=middle;resizable=0;points=[];autosize=1;strokeColor=none;fillColor=none;fontSize=8;" parent="1" vertex="1">
          <mxGeometry x="708" y="309" width="50" height="20" as="geometry" />
        </mxCell>
        <mxCell id="5RwMvg_xWtixHcQHssWJ-36" value="&lt;font style=&quot;font-size: 8px;&quot;&gt;nRD&lt;/font&gt;" style="text;html=1;align=center;verticalAlign=middle;resizable=0;points=[];autosize=1;strokeColor=none;fillColor=none;" parent="1" vertex="1">
          <mxGeometry x="770" y="455" width="40" height="30" as="geometry" />
        </mxCell>
        <mxCell id="5RwMvg_xWtixHcQHssWJ-37" value="" style="ellipse;whiteSpace=wrap;html=1;aspect=fixed;" parent="1" vertex="1">
          <mxGeometry x="770" y="465" width="10" height="10" as="geometry" />
        </mxCell>
        <mxCell id="5RwMvg_xWtixHcQHssWJ-38" value="" style="ellipse;whiteSpace=wrap;html=1;aspect=fixed;" parent="1" vertex="1">
          <mxGeometry x="710" y="315" width="10" height="10" as="geometry" />
        </mxCell>
        <mxCell id="5RwMvg_xWtixHcQHssWJ-40" value="" style="endArrow=none;html=1;rounded=0;strokeWidth=2;entryX=0;entryY=0.5;entryDx=0;entryDy=0;" parent="1" target="5RwMvg_xWtixHcQHssWJ-39" edge="1">
          <mxGeometry width="50" height="50" relative="1" as="geometry">
            <mxPoint x="440" y="290" as="sourcePoint" />
            <mxPoint x="500" y="291" as="targetPoint" />
            <Array as="points" />
          </mxGeometry>
        </mxCell>
        <mxCell id="5RwMvg_xWtixHcQHssWJ-39" value="" style="ellipse;whiteSpace=wrap;html=1;aspect=fixed;" parent="1" vertex="1">
          <mxGeometry x="440" y="285" width="10" height="10" as="geometry" />
        </mxCell>
        <mxCell id="5RwMvg_xWtixHcQHssWJ-41" value="A&lt;sub style=&quot;font-size: 8px;&quot;&gt;13-1&lt;/sub&gt;" style="text;html=1;align=center;verticalAlign=middle;resizable=0;points=[];autosize=1;strokeColor=none;fillColor=none;fontSize=8;" parent="1" vertex="1">
          <mxGeometry x="175" y="217" width="40" height="30" as="geometry" />
        </mxCell>
        <mxCell id="5RwMvg_xWtixHcQHssWJ-42" value="&lt;font style=&quot;font-size: 8px;&quot;&gt;A&lt;sub&gt;14&lt;/sub&gt;&lt;/font&gt;" style="text;html=1;align=center;verticalAlign=middle;resizable=0;points=[];autosize=1;strokeColor=none;fillColor=none;" parent="1" vertex="1">
          <mxGeometry x="170" y="245" width="40" height="30" as="geometry" />
        </mxCell>
        <mxCell id="5RwMvg_xWtixHcQHssWJ-43" value="&lt;font style=&quot;font-size: 8px;&quot;&gt;A&lt;sub&gt;15&lt;/sub&gt;&lt;/font&gt;" style="text;html=1;align=center;verticalAlign=middle;resizable=0;points=[];autosize=1;strokeColor=none;fillColor=none;" parent="1" vertex="1">
          <mxGeometry x="170" y="280" width="40" height="30" as="geometry" />
        </mxCell>
        <mxCell id="5RwMvg_xWtixHcQHssWJ-44" value="" style="endArrow=none;html=1;rounded=0;" parent="1" source="5RwMvg_xWtixHcQHssWJ-49" edge="1">
          <mxGeometry width="50" height="50" relative="1" as="geometry">
            <mxPoint x="470" y="600" as="sourcePoint" />
            <mxPoint x="470" y="310" as="targetPoint" />
            <Array as="points">
              <mxPoint x="470" y="310" />
            </Array>
          </mxGeometry>
        </mxCell>
        <mxCell id="5RwMvg_xWtixHcQHssWJ-46" value="" style="endArrow=none;html=1;rounded=0;strokeWidth=2;entryX=0;entryY=0.5;entryDx=0;entryDy=0;" parent="1" source="FfAWD8UeeB69dAOk08Cy-34" target="5RwMvg_xWtixHcQHssWJ-45" edge="1">
          <mxGeometry width="50" height="50" relative="1" as="geometry">
            <mxPoint x="230" y="280" as="sourcePoint" />
            <mxPoint x="260" y="280" as="targetPoint" />
            <Array as="points" />
          </mxGeometry>
        </mxCell>
        <mxCell id="5RwMvg_xWtixHcQHssWJ-45" value="" style="ellipse;whiteSpace=wrap;html=1;aspect=fixed;" parent="1" vertex="1">
          <mxGeometry x="250" y="275" width="10" height="10" as="geometry" />
        </mxCell>
        <mxCell id="5RwMvg_xWtixHcQHssWJ-48" value="" style="endArrow=none;html=1;rounded=0;strokeWidth=2;exitX=1;exitY=0.5;exitDx=0;exitDy=0;exitPerimeter=0;" parent="1" source="5RwMvg_xWtixHcQHssWJ-39" target="5RwMvg_xWtixHcQHssWJ-47" edge="1">
          <mxGeometry width="50" height="50" relative="1" as="geometry">
            <mxPoint x="450" y="290" as="sourcePoint" />
            <mxPoint x="470" y="290" as="targetPoint" />
            <Array as="points" />
          </mxGeometry>
        </mxCell>
        <mxCell id="5RwMvg_xWtixHcQHssWJ-47" value="" style="ellipse;whiteSpace=wrap;html=1;aspect=fixed;" parent="1" vertex="1">
          <mxGeometry x="490" y="285" width="10" height="10" as="geometry" />
        </mxCell>
        <mxCell id="5RwMvg_xWtixHcQHssWJ-50" value="" style="endArrow=none;html=1;rounded=0;" parent="1" edge="1">
          <mxGeometry width="50" height="50" relative="1" as="geometry">
            <mxPoint x="470" y="600" as="sourcePoint" />
            <mxPoint x="470" y="310" as="targetPoint" />
            <Array as="points" />
          </mxGeometry>
        </mxCell>
        <mxCell id="5RwMvg_xWtixHcQHssWJ-49" value="" style="ellipse;whiteSpace=wrap;html=1;aspect=fixed;" parent="1" vertex="1">
          <mxGeometry x="490" y="305" width="10" height="10" as="geometry" />
        </mxCell>
        <mxCell id="5RwMvg_xWtixHcQHssWJ-51" value="A&lt;sub style=&quot;font-size: 8px;&quot;&gt;13-1&lt;/sub&gt;" style="text;html=1;align=center;verticalAlign=middle;resizable=0;points=[];autosize=1;strokeColor=none;fillColor=none;fontSize=8;" parent="1" vertex="1">
          <mxGeometry x="390" y="215" width="40" height="30" as="geometry" />
        </mxCell>
        <mxCell id="5RwMvg_xWtixHcQHssWJ-52" value="A&lt;sub style=&quot;font-size: 8px;&quot;&gt;14&lt;/sub&gt;" style="text;html=1;align=center;verticalAlign=middle;resizable=0;points=[];autosize=1;strokeColor=none;fillColor=none;fontSize=8;" parent="1" vertex="1">
          <mxGeometry x="380" y="255" width="40" height="30" as="geometry" />
        </mxCell>
        <mxCell id="5RwMvg_xWtixHcQHssWJ-53" value="A&lt;font style=&quot;font-size: 8px;&quot;&gt;&lt;sub style=&quot;font-size: 8px;&quot;&gt;15&lt;/sub&gt;&lt;/font&gt;" style="text;html=1;align=center;verticalAlign=middle;resizable=0;points=[];autosize=1;strokeColor=none;fillColor=none;fontSize=8;" parent="1" vertex="1">
          <mxGeometry x="380" y="295" width="40" height="30" as="geometry" />
        </mxCell>
        <mxCell id="FD9hYb9DDB--mBPRf5bZ-2" value="" style="endArrow=none;html=1;rounded=0;" edge="1" parent="1" target="OPhM1rb45kpCFRoYdec_-12">
          <mxGeometry width="50" height="50" relative="1" as="geometry">
            <mxPoint x="210" y="310" as="sourcePoint" />
            <mxPoint x="270" y="310" as="targetPoint" />
          </mxGeometry>
        </mxCell>
        <mxCell id="OPhM1rb45kpCFRoYdec_-12" value="" style="ellipse;whiteSpace=wrap;html=1;aspect=fixed;" parent="1" vertex="1">
          <mxGeometry x="250" y="305" width="10" height="10" as="geometry" />
        </mxCell>
        <mxCell id="FD9hYb9DDB--mBPRf5bZ-5" value="" style="endArrow=none;html=1;rounded=0;strokeWidth=2;entryX=0;entryY=0.5;entryDx=0;entryDy=0;" edge="1" parent="1" source="FfAWD8UeeB69dAOk08Cy-24" target="FfAWD8UeeB69dAOk08Cy-34">
          <mxGeometry width="50" height="50" relative="1" as="geometry">
            <mxPoint x="230" y="280" as="sourcePoint" />
            <mxPoint x="250" y="280" as="targetPoint" />
            <Array as="points" />
          </mxGeometry>
        </mxCell>
        <mxCell id="FfAWD8UeeB69dAOk08Cy-34" value="" style="ellipse;whiteSpace=wrap;html=1;aspect=fixed;" parent="1" vertex="1">
          <mxGeometry x="230" y="275" width="10" height="10" as="geometry" />
        </mxCell>
        <mxCell id="FD9hYb9DDB--mBPRf5bZ-11" value="" style="endArrow=none;html=1;rounded=0;entryX=0.5;entryY=0;entryDx=0;entryDy=0;entryPerimeter=0;strokeWidth=2;" edge="1" parent="1" target="FfAWD8UeeB69dAOk08Cy-16">
          <mxGeometry width="50" height="50" relative="1" as="geometry">
            <mxPoint x="390" y="300" as="sourcePoint" />
            <mxPoint x="470" y="170" as="targetPoint" />
          </mxGeometry>
        </mxCell>
        <mxCell id="FD9hYb9DDB--mBPRf5bZ-13" value="" style="endArrow=none;html=1;rounded=0;strokeWidth=2;" edge="1" parent="1">
          <mxGeometry width="50" height="50" relative="1" as="geometry">
            <mxPoint x="700" y="270" as="sourcePoint" />
            <mxPoint x="720" y="270" as="targetPoint" />
            <Array as="points">
              <mxPoint x="710" y="270" />
              <mxPoint x="720" y="270" />
            </Array>
          </mxGeometry>
        </mxCell>
        <mxCell id="5RwMvg_xWtixHcQHssWJ-9" value="A&lt;sub style=&quot;font-size: 8px;&quot;&gt;12&lt;/sub&gt;" style="text;html=1;align=center;verticalAlign=middle;resizable=0;points=[];autosize=1;strokeColor=none;fillColor=none;fontSize=8;" parent="1" vertex="1">
          <mxGeometry x="708" y="255" width="40" height="30" as="geometry" />
        </mxCell>
      </root>
    </mxGraphModel>
  </diagram>
</mxfile>
